<svg width="40" height="40" viewBox="0 0 40 40" fill="none" xmlns="http://www.w3.org/2000/svg">
<path d="M33.2727 25.5984C33.2727 22.8224 32.4574 20.2761 31.0543 18.151C29.0065 15.0878 25.7642 12.9244 21.991 12.3692C21.3463 12.2543 20.6827 12.1968 20.0001 12.1968C19.3175 12.1968 18.6538 12.2543 18.0092 12.3692C14.2359 12.9244 10.9936 15.0878 8.94585 18.151C7.54274 20.2761 6.72742 22.8224 6.72742 25.5984C6.72742 33.0076 12.6622 39 20.0001 39C27.3379 39 33.2727 33.0076 33.2727 25.5984Z" stroke="white" stroke-width="2" stroke-linecap="round" stroke-linejoin="round"/>
<path d="M37.5392 7.46826L34.4106 6.72159C33.7091 6.54929 33.1592 6.01323 33.0075 5.30486L32.3439 2.49053C31.9837 0.958919 30.0496 0.499436 29.0447 1.70558L20.0003 12.1971L10.9559 1.68643C9.95098 0.480291 8.01696 0.939773 7.6567 2.47138L6.99307 5.28571C6.82242 5.99408 6.27256 6.54929 5.58996 6.70245L2.46141 7.44911C1.02038 7.79372 0.508433 9.61251 1.55128 10.6655L8.94605 18.1321C10.9938 15.0689 14.2361 12.9055 18.0094 12.3503C18.6541 12.2354 19.3178 12.178 20.0003 12.178C20.6829 12.178 21.3466 12.2354 21.9912 12.3503C25.7645 12.9055 29.0068 15.0689 31.0546 18.1321L38.4493 10.6655C39.4922 9.63165 38.9802 7.81287 37.5392 7.46826Z" stroke="white" stroke-width="2" stroke-linecap="round" stroke-linejoin="round"/>
<path d="M21.0998 31.3802L22.2185 29.1211C22.3702 28.8147 22.7684 28.5084 23.1286 28.451L25.1575 28.1064C26.4468 27.8958 26.7502 26.9385 25.8211 26.0004L24.2473 24.4114C23.9819 24.1434 23.8302 23.6264 23.925 23.2435L24.3801 21.2715C24.7403 19.7208 23.925 19.1082 22.5598 19.9314L20.6637 21.061C20.3224 21.2716 19.7536 21.2716 19.4123 21.061L17.5162 19.9314C16.151 19.1273 15.3356 19.7208 15.6959 21.2715L16.151 23.2435C16.2269 23.6073 16.0941 24.1434 15.8286 24.4114L14.2549 26.0004C13.3258 26.9385 13.6292 27.8766 14.9185 28.1064L16.9474 28.451C17.2887 28.5084 17.6869 28.8147 17.8385 29.1211L18.9572 31.3802C19.5071 32.6055 20.4931 32.6055 21.0998 31.3802Z" stroke="white" stroke-width="2" stroke-linecap="round" stroke-linejoin="round"/>
</svg>
