<svg width="40" height="40" viewBox="0 0 40 40" fill="none" xmlns="http://www.w3.org/2000/svg">
<path d="M31.4496 10.8027C31.3354 10.7837 31.2021 10.7837 31.0879 10.8027C28.4613 10.7077 26.3677 8.56101 26.3677 5.90136C26.3677 3.18471 28.5565 1 31.2783 1C34 1 36.1889 3.20371 36.1889 5.90136C36.1698 8.56101 34.0762 10.7077 31.4496 10.8027Z" stroke="black" stroke-width="2" stroke-linecap="round" stroke-linejoin="round"/>
<path d="M29.4881 24.6327C32.0957 25.0696 34.9697 24.6137 36.9873 23.2649C39.671 21.4791 39.671 18.5535 36.9873 16.7677C34.9507 15.419 32.0386 14.963 29.431 15.419" stroke="black" stroke-width="2" stroke-linecap="round" stroke-linejoin="round"/>
<path d="M8.55155 10.8027C8.66575 10.7837 8.79898 10.7837 8.91318 10.8027C11.5398 10.7077 13.6334 8.56101 13.6334 5.90136C13.6334 3.18471 11.4446 1 8.72285 1C6.00109 1 3.81226 3.20371 3.81226 5.90136C3.83129 8.56101 5.92495 10.7077 8.55155 10.8027Z" stroke="black" stroke-width="2" stroke-linecap="round" stroke-linejoin="round"/>
<path d="M10.5119 24.6327C7.90433 25.0696 5.0303 24.6137 3.01277 23.2649C0.329076 21.4791 0.329076 18.5535 3.01277 16.7677C5.04934 15.419 7.96143 14.963 10.569 15.419" stroke="black" stroke-width="2" stroke-linecap="round" stroke-linejoin="round"/>
<path d="M20.0297 24.9939C19.9155 24.9749 19.7823 24.9749 19.6681 24.9939C17.0415 24.8989 14.9478 22.7522 14.9478 20.0925C14.9478 17.3759 17.1367 15.1911 19.8584 15.1911C22.5802 15.1911 24.769 17.3949 24.769 20.0925C24.75 22.7522 22.6563 24.9179 20.0297 24.9939Z" stroke="black" stroke-width="2" stroke-linecap="round" stroke-linejoin="round"/>
<path d="M14.4903 30.9783C11.8066 32.7641 11.8066 35.6897 14.4903 37.4755C17.5357 39.5082 22.5224 39.5082 25.5678 37.4755C28.2515 35.6897 28.2515 32.7641 25.5678 30.9783C22.5415 28.9646 17.5357 28.9646 14.4903 30.9783Z" stroke="black" stroke-width="2" stroke-linecap="round" stroke-linejoin="round"/>
</svg>
