<svg width="38" height="38" viewBox="0 0 38 38" fill="none" xmlns="http://www.w3.org/2000/svg">
<path d="M16.8065 0C16.2752 0 15.744 0.094059 15.2493 0.282181C12.9595 1.05347 11.494 3.64951 12.0069 6.05744L12.9045 11.9832C12.9229 12.1149 12.9229 12.303 12.7946 12.4535C12.703 12.5476 12.5748 12.604 12.4283 12.604H5.10087C3.30566 12.604 1.74859 13.3753 0.832667 14.7109C-0.0649381 16.0089 -0.248123 17.7208 0.338068 19.3763L4.71618 33.0713C5.39397 35.799 8.23333 38 11.1643 38H18.1254C19.1512 38 21.3861 37.6802 22.5768 36.4574L28.1273 32.0554L26.442 29.8168L20.7633 34.3317C20.3053 34.802 19.1512 35.1782 18.1254 35.1782H11.1643C9.51562 35.1782 7.73873 33.8238 7.37236 32.3L2.93929 18.4733C2.6462 17.6456 2.70115 16.8931 3.08584 16.3476C3.48885 15.7644 4.22158 15.4258 5.11919 15.4258H12.4466C13.3991 15.4258 14.2784 15.0119 14.8829 14.2971C15.5059 13.5634 15.7806 12.5852 15.6341 11.5693L14.7181 5.5307C14.4982 4.47724 15.1943 3.29209 16.1836 2.95347C17.0629 2.61486 18.2353 3.10397 18.6383 3.70595L26.1489 15.1812L28.4204 13.601L20.9098 2.12575C20.0488 0.808914 18.4185 0 16.8065 0Z" fill="black"/>
<path d="M32.9624 7.52174H31.1306C27.7417 7.52174 26.093 9.15837 26.093 12.5069V30.9426C26.093 34.2911 27.7417 35.9277 31.1306 35.9277H32.9624C36.3513 35.9277 38 34.2911 38 30.9426V12.5069C38 9.15837 36.3513 7.52174 32.9624 7.52174ZM31.1306 33.1059C29.1339 33.1059 28.8408 32.6168 28.8408 30.9426V12.5069C28.8408 10.8326 29.1339 10.3435 31.1306 10.3435H32.9624C34.9591 10.3435 35.2522 10.8326 35.2522 12.5069V30.9426C35.2522 32.6168 34.9591 33.1059 32.9624 33.1059H31.1306Z" fill="black"/>
</svg>
