<svg width="182" height="38" viewBox="0 0 182 38" fill="none" xmlns="http://www.w3.org/2000/svg">
<path d="M20.0537 38C30.497 38 38.9629 29.4934 38.9629 19C38.9629 8.50659 30.497 0 20.0537 0C9.61047 0 1.14453 8.50659 1.14453 19C1.14453 29.4934 9.61047 38 20.0537 38Z" fill="#CE2457"/>
<path fill-rule="evenodd" clip-rule="evenodd" d="M19.1219 7.57292C13.2595 8.05463 8.65137 12.9879 8.65137 19.0026C8.65137 25.3365 13.7614 30.471 20.0649 30.471C26.3683 30.471 31.4784 25.3365 31.4784 19.0026C31.4784 12.9872 26.8692 8.05354 21.0058 7.57275L20.6983 15.1055C22.5673 15.4098 23.9942 17.0389 23.9942 19.0026C23.9942 21.1832 22.2349 22.9509 20.0649 22.9509C17.8947 22.9509 16.1355 21.1832 16.1355 19.0026C16.1355 17.0394 17.5614 15.411 19.4294 15.1058L19.1219 7.57292Z" fill="white"/>
<path d="M20.0524 6.76917C21.413 6.76917 22.516 5.66089 22.516 4.29376C22.516 2.92664 21.413 1.81836 20.0524 1.81836C18.6918 1.81836 17.5889 2.92664 17.5889 4.29376C17.5889 5.66089 18.6918 6.76917 20.0524 6.76917Z" fill="white"/>
<path d="M64.7165 18.9961C64.7165 21.613 63.7639 23.7266 61.9644 25.4378C60.1649 27.1489 57.942 27.954 55.2957 27.954C52.6493 27.954 50.5322 27.1489 48.6269 25.4378C46.9333 23.7266 45.9805 21.613 45.9805 18.9961C45.9805 16.3791 46.9333 14.2654 48.7327 12.5544C50.5322 10.8433 52.7551 10.0381 55.2957 10.0381C57.8361 10.0381 60.1649 10.8433 61.9644 12.5544C63.7639 14.2654 64.7165 16.3791 64.7165 18.9961ZM61.2234 18.9961C61.2234 17.4863 60.6941 16.1778 59.5298 15.1713C58.4712 14.1647 56.9893 13.6615 55.2957 13.6615C53.602 13.6615 52.2259 14.1647 51.0615 15.1713C49.8971 16.1778 49.3678 17.4863 49.3678 18.9961C49.3678 20.5059 49.8971 21.8143 51.0615 22.8208C52.12 23.8273 53.602 24.3306 55.2957 24.3306C56.9893 24.3306 58.4712 23.8273 59.5298 22.8208C60.6941 21.8143 61.2234 20.5059 61.2234 18.9961Z" fill="#1B1D21"/>
<path d="M75.8916 27.1508H71.9751V13.9654H65.9414V10.8452H81.8194V13.9654H75.8916V27.1508Z" fill="#1B1D21"/>
<path d="M90.5909 27.557C87.8388 27.557 85.6158 27.1544 83.8164 26.3492V23.1283C85.8276 24.0342 87.9446 24.4368 90.0617 24.4368C91.6495 24.4368 92.8139 24.2356 93.7666 23.8329C94.6134 23.4303 95.1427 22.8264 95.1427 22.1218C95.1427 20.7127 93.8725 20.1088 91.2262 20.1088H87.9446V17.1899H91.2262C93.4491 17.1899 94.5076 16.586 94.5076 15.3782C94.5076 14.0697 93.0256 13.4658 90.1676 13.4658C88.2622 13.4658 86.3568 13.8685 84.3456 14.6737V11.5534C86.1452 10.8489 88.3681 10.4463 91.0144 10.4463C93.1315 10.4463 94.9311 10.8489 96.4129 11.6541C97.789 12.4594 98.53 13.5665 98.53 14.7743C98.53 16.586 97.5774 17.7939 95.7778 18.3977C98.0007 19.1022 99.1652 20.4107 99.1652 22.4238C99.1652 23.9336 98.4242 25.242 96.8364 26.1479C95.2486 27.1544 93.1315 27.557 90.5909 27.557Z" fill="#1B1D21"/>
<path d="M120.524 18.9961C120.524 21.613 119.572 23.7266 117.772 25.4378C115.973 27.1489 113.75 27.954 111.103 27.954C108.457 27.954 106.34 27.1489 104.435 25.4378C102.635 23.7266 101.683 21.613 101.683 18.9961C101.683 16.3791 102.635 14.2654 104.435 12.5544C106.34 10.8433 108.563 10.0381 111.209 10.0381C113.856 10.0381 116.079 10.8433 117.878 12.5544C119.572 14.2654 120.524 16.3791 120.524 18.9961ZM117.137 18.9961C117.137 17.4863 116.608 16.1778 115.443 15.1713C114.385 14.1647 112.903 13.6615 111.209 13.6615C109.516 13.6615 108.14 14.1647 106.975 15.1713C105.811 16.1778 105.282 17.4863 105.282 18.9961C105.282 20.5059 105.811 21.8143 106.975 22.8208C108.034 23.8273 109.516 24.3306 111.209 24.3306C112.903 24.3306 114.385 23.8273 115.443 22.8208C116.502 21.8143 117.137 20.5059 117.137 18.9961Z" fill="#1B1D21"/>
<path d="M134.285 27.1508H124.018V10.8452H133.756C135.449 10.8452 136.825 11.2478 137.884 11.9524C138.943 12.657 139.366 13.7641 139.366 14.9719C139.366 15.7771 139.154 16.4817 138.73 17.0856C138.307 17.6895 137.777 18.1927 137.036 18.4947C139.366 19.0986 140.53 20.5078 140.53 22.7221C140.53 24.1312 140 25.2383 138.836 26.0435C137.777 26.7481 136.295 27.1508 134.285 27.1508ZM127.934 13.7641V17.3875H132.803C133.649 17.3875 134.285 17.1862 134.813 16.8844C135.238 16.5824 135.554 16.0791 135.554 15.5758C135.554 14.368 134.708 13.7641 132.908 13.7641H127.934ZM127.934 20.2058V24.2319H133.544C134.497 24.2319 135.131 24.0305 135.661 23.7286C136.19 23.3259 136.402 22.9234 136.402 22.2188C136.402 21.6149 136.19 21.1116 135.661 20.7091C135.131 20.3065 134.39 20.2058 133.544 20.2058H127.934Z" fill="#1B1D21"/>
<path d="M147.831 27.1415H144.126V10.8359H148.043V21.9076L157.676 10.8359H161.381V27.1415H157.464V16.0698L147.831 27.1415Z" fill="#1B1D21"/>
<path d="M169.371 27.1415H165.454V10.8359H169.371V27.1415Z" fill="#1B1D21"/>
<path d="M173.502 18.6882L181.348 27.0422H176.283L168.833 18.8894L175.787 10.938H180.654L173.502 18.6882Z" fill="#1B1D21"/>
</svg>
