<svg width="145" height="24" viewBox="0 0 145 24" fill="none" xmlns="http://www.w3.org/2000/svg">
<path d="M14.2092 0.901551L16.6133 5.86009C16.9138 6.31086 17.3646 6.76163 17.9657 6.76163L23.5252 7.51292C25.0278 7.66318 25.4786 9.46628 24.4268 10.5181L20.3698 14.4248C19.919 14.8756 19.7688 15.4766 19.919 15.9274L20.8206 21.487C21.1211 22.8393 19.6185 24.0414 18.2662 23.2901L13.3076 20.7357C12.8568 20.4352 12.2558 20.4352 11.6548 20.7357L6.69626 23.2901C5.34393 23.8911 3.99161 22.8393 4.14187 21.487L5.0434 15.9274C5.19366 15.3264 4.89316 14.7253 4.59265 14.4248L0.535647 10.5181C-0.516163 9.46628 0.0848806 7.81344 1.43721 7.51292L6.99677 6.76163C7.5978 6.61137 8.04859 6.31086 8.34911 5.86009L10.7532 0.901551C11.805 -0.300517 13.6082 -0.300517 14.2092 0.901551Z" fill="#1B1D21"/>
<path d="M44.2092 0.901551L46.6133 5.86009C46.9138 6.31086 47.3646 6.76163 47.9657 6.76163L53.5252 7.51292C55.0278 7.66318 55.4786 9.46628 54.4268 10.5181L50.3698 14.4248C49.919 14.8756 49.7688 15.4766 49.919 15.9274L50.8206 21.487C51.1211 22.8393 49.6185 24.0414 48.2662 23.2901L43.3076 20.7357C42.8568 20.4352 42.2558 20.4352 41.6548 20.7357L36.6963 23.2901C35.3439 23.8911 33.9916 22.8393 34.1419 21.487L35.0434 15.9274C35.1937 15.3264 34.8932 14.7253 34.5926 14.4248L30.5356 10.5181C29.4838 9.46628 30.0849 7.81344 31.4372 7.51292L36.9968 6.76163C37.5978 6.61137 38.0486 6.31086 38.3491 5.86009L40.7532 0.901551C41.805 -0.300517 43.6082 -0.300517 44.2092 0.901551Z" fill="#1B1D21"/>
<path d="M74.2092 0.901551L76.6133 5.86009C76.9138 6.31086 77.3646 6.76163 77.9657 6.76163L83.5252 7.51292C85.0278 7.66318 85.4786 9.46628 84.4268 10.5181L80.3698 14.4248C79.919 14.8756 79.7688 15.4766 79.919 15.9274L80.8206 21.487C81.1211 22.8393 79.6185 24.0414 78.2662 23.2901L73.3076 20.7357C72.8568 20.4352 72.2558 20.4352 71.6548 20.7357L66.6963 23.2901C65.3439 23.8911 63.9916 22.8393 64.1419 21.487L65.0434 15.9274C65.1937 15.3264 64.8932 14.7253 64.5926 14.4248L60.5356 10.5181C59.4838 9.46628 60.0849 7.81344 61.4372 7.51292L66.9968 6.76163C67.5978 6.61137 68.0486 6.31086 68.3491 5.86009L70.7532 0.901551C71.805 -0.300517 73.6082 -0.300517 74.2092 0.901551Z" fill="#1B1D21"/>
<path d="M104.209 0.901551L106.613 5.86009C106.914 6.31086 107.365 6.76163 107.966 6.76163L113.525 7.51292C115.028 7.66318 115.479 9.46628 114.427 10.5181L110.37 14.4248C109.919 14.8756 109.769 15.4766 109.919 15.9274L110.821 21.487C111.121 22.8393 109.618 24.0414 108.266 23.2901L103.308 20.7357C102.857 20.4352 102.256 20.4352 101.655 20.7357L96.6963 23.2901C95.3439 23.8911 93.9916 22.8393 94.1419 21.487L95.0434 15.9274C95.1937 15.3264 94.8932 14.7253 94.5926 14.4248L90.5356 10.5181C89.4838 9.46628 90.0849 7.81344 91.4372 7.51292L96.9968 6.76163C97.5978 6.61137 98.0486 6.31086 98.3491 5.86009L100.753 0.901551C101.805 -0.300517 103.608 -0.300517 104.209 0.901551Z" fill="#1B1D21"/>
<path d="M136.163 6.07823C136.173 6.09871 136.185 6.1185 136.197 6.13744C136.513 6.61164 137.083 7.24354 137.929 7.26125L143.458 8.00842C143.464 8.00919 143.47 8.00986 143.475 8.01044C144.007 8.06363 144.335 8.39513 144.453 8.8128C144.573 9.24141 144.47 9.76581 144.076 10.1615L140.023 14.0647L140.023 14.0646L140.016 14.0713C139.47 14.6175 139.233 15.3885 139.431 16.0434L140.327 21.567C140.329 21.5765 140.33 21.586 140.332 21.5954C140.538 22.5211 139.49 23.3977 138.509 22.853L138.495 22.8456L133.56 20.3031C132.926 19.8955 132.138 19.935 131.431 20.2885L131.431 20.2884L131.426 20.2912L126.481 22.8386C125.489 23.2697 124.539 22.5122 124.638 21.5537L125.534 16.0266C125.727 15.2129 125.326 14.4506 124.946 14.0713L124.946 14.0712L124.939 14.0647L120.886 10.1614C120.15 9.42101 120.536 8.23943 121.527 8.00538L127.064 7.25712C127.082 7.25465 127.1 7.25117 127.118 7.2467C127.821 7.07091 128.386 6.70659 128.765 6.13744C128.778 6.11849 128.789 6.09871 128.799 6.07822L131.172 1.18321C131.601 0.72015 132.158 0.5 132.65 0.5C133.154 0.5 133.56 0.723438 133.761 1.12263L136.163 6.07823Z" fill="url(#paint0_linear_104_1800)" stroke="#1B1D21" stroke-miterlimit="10" stroke-linecap="round" stroke-linejoin="round"/>
<defs>
<linearGradient id="paint0_linear_104_1800" x1="133" y1="12" x2="133.5" y2="12" gradientUnits="userSpaceOnUse">
<stop stop-color="#1B1D21"/>
<stop offset="1" stop-color="#F5F5F7"/>
</linearGradient>
</defs>
</svg>
