<svg width="19" height="18" viewBox="0 0 19 18" fill="none" xmlns="http://www.w3.org/2000/svg">
<g clip-path="url(#clip0_2106_2268)">
<path d="M2.26416 1.73959H3.54417C4.33865 1.73959 4.96393 2.42553 4.89772 3.21473L4.28715 10.5609C4.18416 11.7631 5.13312 12.7957 6.33956 12.7957H14.174C15.2334 12.7957 16.1603 11.9254 16.2412 10.8707L16.6384 5.33892C16.7267 4.11456 15.7998 3.11884 14.5713 3.11884H5.07428" stroke="black" stroke-width="1.41241" stroke-miterlimit="10" stroke-linecap="round" stroke-linejoin="round"/>
<path d="M12.7472 16.4904C13.2551 16.4904 13.6667 16.0777 13.6667 15.5684C13.6667 15.0592 13.2551 14.6465 12.7472 14.6465C12.2393 14.6465 11.8276 15.0592 11.8276 15.5684C11.8276 16.0777 12.2393 16.4904 12.7472 16.4904Z" stroke="black" stroke-width="1.41241" stroke-miterlimit="10" stroke-linecap="round" stroke-linejoin="round"/>
<path d="M6.86217 16.4904C7.37002 16.4904 7.78171 16.0777 7.78171 15.5684C7.78171 15.0592 7.37002 14.6465 6.86217 14.6465C6.35432 14.6465 5.94263 15.0592 5.94263 15.5684C5.94263 16.0777 6.35432 16.4904 6.86217 16.4904Z" stroke="black" stroke-width="1.41241" stroke-miterlimit="10" stroke-linecap="round" stroke-linejoin="round"/>
<path d="M7.41382 6.16425H16.2414" stroke="black" stroke-width="1.41241" stroke-miterlimit="10" stroke-linecap="round" stroke-linejoin="round"/>
</g>
<defs>
<clipPath id="clip0_2106_2268">
<rect width="17.6552" height="17.7016" fill="white" transform="translate(0.793213 0.264099)"/>
</clipPath>
</defs>
</svg>
