<svg width="59" height="53" viewBox="0 0 59 53" fill="none" xmlns="http://www.w3.org/2000/svg">
<path d="M21.7623 29.2276L47.3386 3.67243C49.7775 1.23549 53.7318 1.23549 56.1708 3.67243C58.6097 6.10936 58.6097 10.0604 56.1708 12.4974L30.5945 38.0526L28.6207 36.0804M21.7623 29.2276L28.6207 36.0804M21.7623 29.2276L2 48.9739C4.6286 50.4667 7.52288 51.1936 10.3963 51.1936C11.5462 51.1936 12.6919 51.0775 13.8166 50.8455C16.9963 50.1956 20.0025 48.6357 22.4212 46.2189L26.7298 41.9139C26.1814 41.3645 25.9072 40.6461 25.9072 39.9277C25.9072 39.2092 26.1814 38.4908 26.7298 37.9428L28.6207 36.0804" stroke="#1B1D21" stroke-width="2"/>
</svg>
