<svg width="66" height="50" viewBox="0 0 66 50" fill="none" xmlns="http://www.w3.org/2000/svg">
<path d="M61.5934 12.1569H56.63V10.2468C56.63 7.93126 55.7167 5.7091 54.0888 4.06958C52.4606 2.42983 50.2508 1.50732 47.9452 1.50732L17.2059 1.50732L17.2031 1.50733C14.9002 1.5138 12.6949 2.43807 11.0686 4.0759C9.44261 5.71349 8.52755 7.93121 8.52114 10.2441H8.52114V10.2468V12.1569H3.5731C2.89795 12.1569 2.25191 12.4271 1.77669 12.9057C1.30171 13.384 1.03613 14.0313 1.03613 14.7048C1.03613 15.3783 1.30171 16.0256 1.77669 16.5039C2.25191 16.9825 2.89795 17.2527 3.5731 17.2527H8.52114V25.6546H3.5731C2.89795 25.6546 2.2519 25.9248 1.77669 26.4034C1.30171 26.8818 1.03613 27.5291 1.03613 28.2025C1.03613 28.876 1.30171 29.5233 1.77669 30.0017C2.25191 30.4803 2.89796 30.7504 3.5731 30.7504H8.52114L8.52113 30.7721L8.52115 30.777C8.53444 33.4509 9.29434 36.0675 10.7147 38.328C12.1351 40.5885 14.1589 42.402 16.5556 43.5604L16.562 43.5634L21.9088 46.1011C21.9094 46.1014 21.91 46.1017 21.9106 46.1019C25.2488 47.6942 28.8967 48.5203 32.5909 48.5203C36.2859 48.5203 39.9344 47.6939 43.2731 46.1011L43.2733 46.101L48.4698 43.6203C48.5238 43.6047 48.5765 43.5844 48.6274 43.5598C51.0205 42.3994 53.0398 40.5843 54.4547 38.3232C55.8696 36.0621 56.6232 33.4461 56.63 30.7746V30.7721V30.7504H61.5934C62.2686 30.7504 62.9146 30.4803 63.3898 30.0017C63.8648 29.5233 64.1304 28.876 64.1304 28.2025C64.1304 27.8668 64.0643 27.5342 63.9358 27.224L63.0119 27.6066L63.9358 27.2239C63.8073 26.9137 63.6188 26.6316 63.3809 26.3944C63.1429 26.1571 62.8603 25.9693 62.549 25.8422C62.2395 25.7158 61.9081 25.652 61.5737 25.6546H56.63V17.2527H61.5934C62.2686 17.2527 62.9146 16.9825 63.3898 16.5039C63.8648 16.0256 64.1304 15.3783 64.1304 14.7048C64.1304 14.0313 63.8648 13.384 63.3898 12.9057C62.9146 12.4271 62.2686 12.1569 61.5934 12.1569Z" stroke="#1B1D21" stroke-width="2" stroke-linecap="round" stroke-linejoin="round"/>
<path d="M25.0597 31.2827H40.2295M20.541 17.7695H44.7021" stroke="#1B1D21" stroke-width="2" stroke-linecap="round" stroke-linejoin="round"/>
</svg>
