<svg width="50" height="50" viewBox="0 0 50 50" fill="none" xmlns="http://www.w3.org/2000/svg">
<path d="M17.0423 18.0424C17.5946 18.0424 18.0423 17.5947 18.0423 17.0424V5C18.0423 3.72112 18.4556 2.73773 19.1076 2.07779C19.7582 1.41922 20.728 1 22 1H28C29.2735 1 30.2547 1.42026 30.9103 2.07992C31.565 2.73867 31.9752 3.71674 31.957 4.98563L31.9569 5V17.0424C31.9569 17.5947 32.4046 18.0424 32.9569 18.0424H45.5C47.3901 18.0424 48.9993 19.4928 48.9993 22V28C48.9993 30.507 47.3903 31.957 45.5 31.957H32.9569C32.4046 31.957 31.9569 32.4047 31.9569 32.957V45C31.9569 46.279 31.5437 47.2622 30.892 47.9219C30.2417 48.5802 29.2721 48.9993 28 48.9993H23C20.3133 48.9993 18.0423 47.2358 18.0423 45V32.957C18.0423 32.4047 17.5946 31.957 17.0423 31.957H5C3.72102 31.957 2.73762 31.5438 2.07772 30.892C1.41921 30.2416 1 29.272 1 28V22C1 20.728 1.41922 19.7582 2.07779 19.1076C2.73772 18.4557 3.72111 18.0424 5 18.0424H17.0423Z" stroke="#1B1D21" stroke-width="2" stroke-linejoin="round"/>
</svg>
