<svg width="54" height="52" viewBox="0 0 54 52" fill="none" xmlns="http://www.w3.org/2000/svg">
<path d="M7.77539 1.49316H25.475" stroke="#1B1D21" stroke-width="2" stroke-miterlimit="10" stroke-linecap="round" stroke-linejoin="round"/>
<path d="M21.0446 19.9963V1.49316H12.2064V19.9963C8.63176 21.0657 5.55895 23.3957 3.55029 26.5599C1.54163 29.7241 0.731429 33.5109 1.26794 37.2274C1.80445 40.944 3.6518 44.3417 6.47195 46.7988C9.29211 49.256 12.8965 50.6083 16.6255 50.6083C20.3546 50.6083 23.959 49.256 26.7791 46.7988C29.5993 44.3417 31.4466 40.944 31.9831 37.2274C32.5196 33.5109 31.7094 29.7241 29.7008 26.5599C27.6921 23.3957 24.6193 21.0657 21.0446 19.9963Z" stroke="#1B1D21" stroke-width="2" stroke-miterlimit="10" stroke-linecap="round" stroke-linejoin="round"/>
<path d="M38.7676 14.8799H47.629V46.0922C47.629 47.2757 47.1622 48.4107 46.3313 49.2475C45.5003 50.0843 44.3734 50.5545 43.1983 50.5545C42.0232 50.5545 40.8962 50.0843 40.0653 49.2475C39.2344 48.4107 38.7676 47.2757 38.7676 46.0922V14.8799Z" stroke="#1B1D21" stroke-width="2" stroke-miterlimit="10" stroke-linecap="round" stroke-linejoin="round"/>
<path d="M34.3369 14.8799H52.0597" stroke="#1B1D21" stroke-width="2" stroke-miterlimit="10" stroke-linecap="round" stroke-linejoin="round"/>
</svg>
