<svg width="50" height="52" viewBox="0 0 50 52" fill="none" xmlns="http://www.w3.org/2000/svg">
<path d="M12.1251 6.8285L11.9725 5.84021L12.1251 6.8285L15.6794 6.27968C16.4265 6.16433 17.1343 5.86889 17.7426 5.41914L20.6412 3.27605C23.2356 1.35785 26.7645 1.35786 29.3589 3.27605L32.2574 5.41913L32.2574 5.41915C32.8658 5.86889 33.5736 6.16433 34.3206 6.27968L34.4732 5.2914L34.3206 6.27968L37.875 6.8285C41.0536 7.31931 43.555 9.83326 44.044 13.0456L44.589 16.6253L44.589 16.6254C44.703 17.3742 44.995 18.0848 45.441 18.6966C45.441 18.6966 45.4411 18.6966 45.4411 18.6967L47.5688 21.6158L47.5689 21.6159C49.477 24.2336 49.477 27.7973 47.5689 30.415L47.5688 30.415L45.4411 33.3342C45.441 33.3342 45.441 33.3342 45.441 33.3342C44.995 33.946 44.703 34.6567 44.589 35.4054L44.589 35.4055L44.044 38.9852C43.555 42.1975 41.0535 44.7116 37.875 45.2023L37.8749 45.2023L34.3206 45.7512L34.3205 45.7512C33.5736 45.8666 32.8658 46.1619 32.2574 46.6117C32.2574 46.6117 32.2574 46.6117 32.2574 46.6117L29.3589 48.7547L29.3589 48.7547C26.7645 50.6729 23.2356 50.6729 20.6412 48.7547L20.6412 48.7547L17.7426 46.6117C17.7426 46.6117 17.7426 46.6117 17.7426 46.6117C17.1342 46.1619 16.4264 45.8666 15.6795 45.7512L15.6795 45.7512L12.1251 45.2023L12.1251 45.2023C8.94644 44.7116 6.44509 42.1975 5.95606 38.9852L5.41112 35.4055L4.42366 35.5558L5.41112 35.4055C5.2971 34.6566 5.00494 33.9459 4.55905 33.3342L4.55903 33.3342L2.4311 30.415C0.522967 27.7973 0.522967 24.2336 2.4311 21.6159L4.55903 18.6966C5.00494 18.0849 5.2971 17.3743 5.41112 16.6253L5.95606 13.0457C6.44508 9.83325 8.94642 7.31931 12.1251 6.8285Z" stroke="#1B1D21" stroke-width="2"/>
<path d="M16 26.3253L21.7229 32.0482L33.4699 20" stroke="#1B1D21" stroke-width="2" stroke-linecap="round"/>
</svg>
