<svg width="48" height="49" viewBox="0 0 48 49" fill="none" xmlns="http://www.w3.org/2000/svg">
<path d="M18.8889 6.6475L24 1.5M13.7778 34.9587L34.2222 14.3687M24 47.8275L29.1111 42.68M35.5 42.68C39.0285 42.68 41.8889 39.7992 41.8889 36.2456C41.8889 32.692 39.0285 29.8112 35.5 29.8112C31.9715 29.8112 29.1111 32.692 29.1111 36.2456C29.1111 39.7992 31.9715 42.68 35.5 42.68ZM12.5 19.5162C16.0285 19.5162 18.8889 16.6355 18.8889 13.0819C18.8889 9.52827 16.0285 6.6475 12.5 6.6475C8.97151 6.6475 6.11111 9.52827 6.11111 13.0819C6.11111 16.6355 8.97151 19.5162 12.5 19.5162ZM7.38889 47.8275C10.9174 47.8275 13.7778 44.9467 13.7778 41.3931C13.7778 37.8395 10.9174 34.9587 7.38889 34.9587C3.8604 34.9587 1 37.8395 1 41.3931C1 44.9467 3.8604 47.8275 7.38889 47.8275ZM40.6111 14.3687C44.1396 14.3687 47 11.488 47 7.93437C47 4.38077 44.1396 1.5 40.6111 1.5C37.0826 1.5 34.2222 4.38077 34.2222 7.93437C34.2222 11.488 37.0826 14.3687 40.6111 14.3687Z" stroke="#1B1D21" stroke-width="2" stroke-linecap="round" stroke-linejoin="round"/>
</svg>
